<svg xmlns="http://www.w3.org/2000/svg" width="66" height="66" viewBox="0 0 66 66">
    <g id="ic_circle_check" transform="translate(-2483 -1582.488)">
        <circle id="Ellipse_40" cx="33" cy="33" r="33" transform="translate(2483 1582.488)"
            fill="#f0f1f5" />
        <g id="svgexport-10_1_" transform="translate(2496 1595.488)">
            <g id="Group_51820">
                <g id="Group_51819">
                    <path id="Path_164575"
                        d="M20,0A20,20,0,1,0,40,20,20.022,20.022,0,0,0,20,0Zm0,36.9A16.9,16.9,0,1,1,36.9,20,16.921,16.921,0,0,1,20,36.9Z"
                        fill="#7e53fd" />
                </g>
            </g>
            <g id="Group_51822" transform="translate(10.319 12.642)">
                <g id="Group_51821">
                    <path id="Path_164576"
                        d="M150.936,162.226a1.55,1.55,0,0,0-2.187.105l-9.45,10.406-4.565-4.641a1.549,1.549,0,1,0-2.209,2.172l5.715,5.809a1.547,1.547,0,0,0,1.1.463.187.187,0,0,1,.029,0,1.55,1.55,0,0,0,1.117-.508l10.551-11.619A1.55,1.55,0,0,0,150.936,162.226Z"
                        transform="translate(-132.079 -161.824)" fill="#7e53fd" />
                </g>
            </g>
        </g>
    </g>
</svg>
