<svg xmlns="http://www.w3.org/2000/svg" width="66" height="66" viewBox="0 0 66 66">
    <g id="ic_danger_alert_dialog" transform="translate(-40.378 -342.379)">
        <g id="Group_43961" transform="translate(-2442.622 -1240.109)">
            <circle id="Ellipse_40" cx="33" cy="33" r="33" transform="translate(2483 1582.488)"
                fill="#f0f1f5" />
            <g id="svgexport-10" transform="translate(2495 1594.488)">
                <g id="Layer_1" transform="translate(1 1)">
                    <path id="Path_164574"
                        d="M21,1A20,20,0,1,0,41,21,20.007,20.007,0,0,0,21,1Zm0,32a2.667,2.667,0,1,1,2.667-2.667A2.675,2.675,0,0,1,21,33Zm3.053-20.68L23.16,23.013a2.168,2.168,0,0,1-4.32,0L17.947,12.32a3.065,3.065,0,1,1,6.12-.253,1.614,1.614,0,0,1-.013.253Z"
                        transform="translate(-1 -1)" fill="#ff6174" />
                </g>
            </g>
        </g>
    </g>
</svg>
