<svg xmlns="http://www.w3.org/2000/svg" width="66" height="66" viewBox="0 0 66 66">
    <g id="ic_server_error" transform="translate(-2483 -1582.488)">
        <circle id="Ellipse_40" cx="33" cy="33" r="33" transform="translate(2483 1582.488)"
            fill="#f0f1f5" />
        <g id="svgexport-10_2_" transform="translate(2496 1594.488)">
            <path id="Path_164577"
                d="M30.833,32H12.5A2.5,2.5,0,0,1,10,29.5a2.4,2.4,0,0,1,.39-1.332L19.538,13.2a2.487,2.487,0,0,1,4.262.013L32.96,28.2a2.346,2.346,0,0,1,.373,1.3,2.5,2.5,0,0,1-2.5,2.5Z"
                transform="translate(6.667 7.334)" fill="#ff6174" />
            <path id="Path_164578"
                d="M17.333,23.333A.834.834,0,0,1,16.5,22.5V15.833a.833.833,0,0,1,1.667,0V22.5A.834.834,0,0,1,17.333,23.333Z"
                transform="translate(11 9.334)" fill="#fff" />
            <circle id="Ellipse_1567" cx="0.833" cy="0.833" r="0.833"
                transform="translate(27.5 34.334)" fill="#fff" />
            <path id="Path_164579"
                d="M30.833,12.667h-25A5.833,5.833,0,1,1,5.833,1h25a5.833,5.833,0,1,1,0,11.667Zm-25-10a4.167,4.167,0,0,0,0,8.333h25a4.167,4.167,0,0,0,0-8.333Z"
                fill="#4f5a65" />
            <path id="Path_164580"
                d="M5.5,8A2.5,2.5,0,1,1,8,5.5,2.5,2.5,0,0,1,5.5,8Zm0-3.333a.833.833,0,1,0,.833.833A.836.836,0,0,0,5.5,4.667Z"
                transform="translate(2 1.333)" fill="#4f5a65" />
            <path id="Path_164581"
                d="M10.5,8A2.5,2.5,0,1,1,13,5.5,2.5,2.5,0,0,1,10.5,8Zm0-3.333a.833.833,0,1,0,.833.833A.836.836,0,0,0,10.5,4.667Z"
                transform="translate(5.333 1.333)" fill="#4f5a65" />
            <path id="Path_164582"
                d="M20.833,18.667h-15A5.833,5.833,0,0,1,5.833,7h25a5.84,5.84,0,0,1,5.833,5.833,5.737,5.737,0,0,1-1.112,3.427.833.833,0,0,1-1.343-.987A4.1,4.1,0,0,0,35,12.833a4.17,4.17,0,0,0-4.167-4.167h-25a4.167,4.167,0,1,0,0,8.333h15a.833.833,0,0,1,0,1.667Z"
                transform="translate(0 4)" fill="#4f5a65" />
            <path id="Path_164583"
                d="M5.5,14A2.5,2.5,0,1,1,8,11.5,2.5,2.5,0,0,1,5.5,14Zm0-3.333a.833.833,0,1,0,.833.833A.836.836,0,0,0,5.5,10.667Z"
                transform="translate(2 5.333)" fill="#4f5a65" />
            <path id="Path_164584"
                d="M10.5,14A2.5,2.5,0,1,1,13,11.5,2.5,2.5,0,0,1,10.5,14Zm0-3.333a.833.833,0,1,0,.833.833A.836.836,0,0,0,10.5,10.667Z"
                transform="translate(5.333 5.333)" fill="#4f5a65" />
            <path id="Path_164585"
                d="M14.167,24.667H5.833A5.833,5.833,0,0,1,5.833,13h15a.833.833,0,0,1,0,1.667h-15a4.167,4.167,0,1,0,0,8.333h8.333a.833.833,0,1,1,0,1.667Z"
                transform="translate(0 8)" fill="#4f5a65" />
            <path id="Path_164586"
                d="M5.5,20A2.5,2.5,0,1,1,8,17.5,2.5,2.5,0,0,1,5.5,20Zm0-3.333a.833.833,0,1,0,.833.833A.836.836,0,0,0,5.5,16.667Z"
                transform="translate(2 9.333)" fill="#4f5a65" />
            <path id="Path_164587"
                d="M10.5,20A2.5,2.5,0,1,1,13,17.5,2.5,2.5,0,0,1,10.5,20Zm0-3.333a.833.833,0,1,0,.833.833A.836.836,0,0,0,10.5,16.667Z"
                transform="translate(5.333 9.333)" fill="#4f5a65" />
        </g>
    </g>
</svg>
