<svg xmlns="http://www.w3.org/2000/svg" version="1.1" xmlns:xlink="http://www.w3.org/1999/xlink"
    xmlns:svgjs="http://svgjs.com/svgjs" width="512" height="512" x="0" y="0" viewBox="0 0 512 512"
    style="enable-background:new 0 0 512 512" xml:space="preserve"><g><circle cx="256" cy="256" r="256" fill="#5F97FB" data-original="#5f97fb"></circle><path
    fill="#5688E1"
    d="m280.149 231.384-67.763-67.763-108.004-8.125L230.21 281.324l-46.57 46.57-95.109 4.259 179.555 179.555C403.857 505.397 512 393.333 512 256c0-24.804-3.54-48.778-10.121-71.459l-87.443-87.443z"
    data-original="#5688e1"></path><path fill="#D4E4E4"
    d="m133.481 125.933-29.1 29.561 141.175 68.089 46.907-34.531 15.054-35.397z"
    data-original="#d4e4e4"></path><path fill="#E8F1F1"
    d="m159.288 320.942 180.535-203.746c14.591-14.591 51.613-43.107 74.851-19.869L292.011 241.353l-145.37 124.006-58.111-33.206 20.618-20.618z"
    data-original="#e8f1f1"></path><path fill="#C0D7D7"
    d="m386.067 378.519-29.561 29.1-68.089-141.175 34.531-46.907 35.397-15.054z"
    data-original="#c0d7d7"></path><path fill="#D4E4E4"
    d="m191.058 352.712 203.746-180.535c14.591-14.591 43.107-51.613 19.87-74.851L146.641 365.359l33.206 58.111 20.618-20.618z"
    data-original="#d4e4e4"></path></g></svg>