<svg xmlns="http://www.w3.org/2000/svg" width="24" height="24" viewBox="0 0 24 24">
    <path id="Path_2223"
        d="M6.735,12.655l3.7,3.7a.938.938,0,0,0,1.326-1.326L9.67,12.937h6.955a.938.938,0,0,0,0-1.875H9.67l2.087-2.087A.938.938,0,1,0,10.431,7.65L6.736,11.344A.937.937,0,0,0,6.735,12.655ZM0,6.955v10.09a6.758,6.758,0,0,0,2.315,5.033A6.519,6.519,0,0,0,6.955,24h10.09a6.519,6.519,0,0,0,4.64-1.922A6.758,6.758,0,0,0,24,17.045V6.955a6.758,6.758,0,0,0-2.315-5.033A6.519,6.519,0,0,0,17.045,0H6.955a6.519,6.519,0,0,0-4.64,1.922A6.758,6.758,0,0,0,0,6.955Zm1.875,0A4.953,4.953,0,0,1,3.64,3.248h0A4.657,4.657,0,0,1,6.955,1.875h10.09A4.657,4.657,0,0,1,20.36,3.248a4.923,4.923,0,0,1,1.765,3.707v10.09a4.953,4.953,0,0,1-1.765,3.707,4.656,4.656,0,0,1-3.315,1.373H6.955A4.657,4.657,0,0,1,3.64,20.752a4.923,4.923,0,0,1-1.765-3.707Z"
        transform="translate(24 24) rotate(180)" />
</svg>
